<?xml version="1.0" encoding="utf-8"?>
<!-- Generator: Adobe Illustrator 25.0.0, SVG Export Plug-In . SVG Version: 6.00 Build 0)  -->
<svg version="1.1" id="Layer_1" xmlns="http://www.w3.org/2000/svg" xmlns:xlink="http://www.w3.org/1999/xlink" x="0px" y="0px"
	 viewBox="0 0 211.3 34.7" style="enable-background:new 0 0 211.3 34.7;" xml:space="preserve">
<style type="text/css">
	.st0{stroke:#FFFFFF;}
</style>
<g>
	<path class="st0" d="M2,32.5V31h14.1c3,0,5.1-1.8,5.1-4.5v-3.2c0-3.1-1-4-3-4.4L6.6,16.6C4.8,16.2,3,15.4,3,11.9V7.4
		C3,4.2,5.5,2,9.1,2h12.6v1.5H9.1c-2.7,0-4.6,1.6-4.6,4v4.5c0,2.3,0.9,2.9,2.4,3.2l11.6,2.4c2,0.4,4.1,1.4,4.1,5.8v3.2
		c0,3.6-2.6,6-6.5,6H2z"/>
	<path class="st0" d="M21.3,3H9.1C6,3,4,4.9,4,7.4v4.5c0,2.6,1.1,3.3,2.8,3.7L18.4,18c2.2,0.4,3.8,1.5,3.8,5.4v3.2
		c0,3.2-2.4,5.5-6.1,5.5H2.5v-0.5h13.6c3.4,0,5.5-2.1,5.5-5v-3.2c0-3.5-1.3-4.4-3.3-4.8L6.7,16.2c-1.9-0.4-3.2-1.2-3.2-4.2V7.4
		c0-2.9,2.2-5,5.6-5h12.2V3z"/>
	<polygon class="st0" points="37.7,32.5 37.7,31 46.2,31 46.2,3.5 37.7,3.5 37.7,2 56.1,2 56.1,3.5 47.7,3.5 47.7,31 56.1,31 
		56.1,32.5 	"/>
	<path class="st0" d="M38.2,32.1v-0.5h8.5V3h-8.5V2.5h17.4V3h-8.4v28.5h8.4v0.5H38.2z"/>
	<polygon class="st0" points="72.8,32.5 72.8,2 74.3,2 74.3,31 92.4,31 92.4,20.2 93.9,20.2 93.9,32.5 	"/>
	<path class="st0" d="M73.3,2.5h0.5v29h19.1V20.7h0.5v11.3H73.3V2.5z"/>
	<path class="st0" d="M132.3,32.5V22.4c0-3.1-1.6-4.4-5.6-4.4h-14.3v14.5h-1.5V2h1.5v14.6h11.1L129.8,2h1.6l-6.3,14.6h1.6
		c4.8,0,7.1,1.9,7.1,5.8v10.1H132.3z"/>
	<path class="st0" d="M111.4,32.1V2.5h0.5V17h11.9l6.3-14.6h0.6L124.4,17h2.2c4.5,0,6.6,1.5,6.6,5.4v9.6h-0.5v-9.6
		c0-3.5-2-4.8-6.1-4.8h-14.7v14.5H111.4z"/>
	<polygon class="st0" points="151.8,32.5 151.8,2 171.2,2 171.2,3.5 153.2,3.5 153.2,16.3 166.7,16.3 166.7,17.8 153.2,17.8 
		153.2,31 171.2,31 171.2,32.5 	"/>
	<path class="st0" d="M170.7,32.1h-18.5V2.5h18.5V3h-17.9v13.8h13.5v0.5h-13.5v14.2h17.9V32.1z"/>
	<path class="st0" d="M196.9,32.5v-9.4h-0.1c-1.8,0-3.1-0.8-4.4-2.5l-5.3-7.4c-0.9-1.2-0.9-2.9-0.9-4.5V2h1.5v6.8
		c0,1.5,0.1,2.8,0.7,3.8l5.3,7.4c0.8,1.2,1.8,1.8,3.1,1.8h1.5c1.3,0,2.2-0.5,3.2-1.8l5.5-7.4c0.7-0.9,0.7-2.3,0.7-3.7V2h1.5l0,7
		c0,1.6,0,3-0.9,4.2l-5.5,7.4c-1.3,1.7-2.6,2.5-4.3,2.5v9.4H196.9z"/>
	<path class="st0" d="M198,22.7v9.4h-0.5v-9.4h-0.5c-1.6,0-2.8-0.7-4-2.3l-5.3-7.4c-0.8-1.1-0.8-2.6-0.8-4.2V2.5h0.5v6.3
		c0,1.5,0.1,2.9,0.8,4l5.3,7.4c1,1.5,2.2,2,3.5,2h1.5c1.4,0,2.5-0.5,3.6-2l5.5-7.4c0.8-1,0.8-2.5,0.8-4V2.5h0.5v6.3
		c0,1.6,0.1,3.1-0.8,4.2l-5.5,7.4c-1.2,1.6-2.4,2.3-4.1,2.3H198z"/>
</g>
</svg>
